PathFileType	4	(x/y/z)	S01_M20_T09.trc
DataRate	CameraRate	NumFrames	NumMarkers	Units	OrigDataRate	OrigDataStartFrame	OrigNumFrames
240	240	4	51	mm	240	236	471
Frame#	Time	Sternum			R.Acromium			L.Acromium			Top.Head			R.ASIS			L.ASIS			R.PSIS			L.PSIS			R.Great.Tro			L.Great.Tro			R.Iliac.Crest			L.Iliac.Crest			V.Sacral			R.Thigh.Upper.Post			R.Thigh.Lower.Ant			R.Thigh.Lower.Post			R.Thigh.Upper.Ant			R.Knee.Lat			R.Knee.Med			R.Shank.Upper.Post			R.Shank.Lower.Ant			R.Shank.Lower.Post			R.Shank.Upper.Ant			R.Ankle.Lat			R.Ankle.Med			R.Heel.Upper			R.Heel.Med			R.Heel.Lat			R.Toe.Lat			R.Toe.Med			R.Toe.Tip			L.Thigh.Upper.Post			L.Thigh.Lower.Ant			L.Thigh.Lower.Post			L.Thigh.Upper.Ant			L.Knee.Lat			L.Knee.Med			L.Shank.Upper.Post			L.Shank.Lower.Ant			L.Shank.Lower.Post			L.Shank.Upper.Ant			L.Ankle.Lat			L.Ankle.Med			L.Heel.Upper			L.Heel.Med			L.Heel.Lat			L.Toe.Lat			L.Toe.Med			L.Toe.Tip			Cervical.Spine			Back			
		X1	Y1	Z1	X2	Y2	Z2	X3	Y3	Z3	X4	Y4	Z4	X5	Y5	Z5	X6	Y6	Z6	X7	Y7	Z7	X8	Y8	Z8	X9	Y9	Z9	X10	Y10	Z10	X11	Y11	Z11	X12	Y12	Z12	X13	Y13	Z13	X14	Y14	Z14	X15	Y15	Z15	X16	Y16	Z16	X17	Y17	Z17	X18	Y18	Z18	X19	Y19	Z19	X20	Y20	Z20	X21	Y21	Z21	X22	Y22	Z22	X23	Y23	Z23	X24	Y24	Z24	X25	Y25	Z25	X26	Y26	Z26	X27	Y27	Z27	X28	Y28	Z28	X29	Y29	Z29	X30	Y30	Z30	X31	Y31	Z31	X32	Y32	Z32	X33	Y33	Z33	X34	Y34	Z34	X35	Y35	Z35	X36	Y36	Z36	X37	Y37	Z37	X38	Y38	Z38	X39	Y39	Z39	X40	Y40	Z40	X41	Y41	Z41	X42	Y42	Z42	X43	Y43	Z43	X44	Y44	Z44	X45	Y45	Z45	X46	Y46	Z46	X47	Y47	Z47	X48	Y48	Z48	X49	Y49	Z49	X50	Y50	Z50	X51	Y51	Z51	

236	0.97917	-47.531	1278	297.82	-149.27	1516.6	495.72	-200.11	1541.4	170.79	-149.12	1844.7	326.52	-84.391	1013.5	452.15	-92.29	1024	184.57	-327.02	1060.3	361.52	-330.94	1054.8	259.58	-168.74	962.12	530.19	-193.88	972.22	103.98	-171.23	1109.8	522.49	-210.42	1106	117.66	-342.14	1020.8	309.02	-251.11	667.45	493.65	-201.86	585.24	455.7	-269.63	582.89	471.1	-179.19	670.38	480.3	-271.71	515.5	460.14	-274.55	525.31	315	-368.12	373.42	476.77	-329.78	280.8	429.38	-389.29	306.84	462.26	-311.8	349.68	449.97	-437.19	108.28	414.36	-405.98	113.74	321.55	-511.31	83.191	354.99	-497.17	52.759	326.81	-502.03	53.291	391.2	-313.7	34.974	452.47	-280.46	40.21	326.75	-216.63	51.442	382.74	-109.97	689.28	122.02	-4.6965	657.62	110.33	-63.003	612.14	138.57	-60.194	734.02	94.366	18.363	557.99	121.37	54.911	566.74	264.53	9.4309	412.37	104.87	98.39	347.23	119.35	35.547	338.73	106.18	73.418	419.65	113.45	97.77	129.04	134.75	131.1	152.89	228.02	52.79	71.093	190.4	77.237	54.523	221.71	66.778	51.121	158.94	254.05	120.78	97.071	289.42	146.47	213.27	333.5	180.84	152.71	-259.68	1583	352.01	-341.86	1270.6	358.24
237	0.98333	-41.972	1276.6	297.51	-143.72	1515.3	495.18	-194.33	1540	170.17	-143.49	1843.4	325.8	-79.269	1012.3	452.01	-86.861	1022.6	184.54	-321.73	1059.1	361.16	-325.51	1053.5	259.25	-163.8	961.2	530.1	-188.33	970.74	103.82	-166.11	1108.6	522.24	-204.73	1104.5	117.41	-336.79	1019.6	308.7	-247.83	667.02	493.56	-198.93	584.53	455.77	-266.74	582.54	471.05	-175.91	669.59	480.34	-269.29	515.1	460.17	-271.75	524.85	314.99	-366.52	373.56	476.73	-328.58	280.67	429.45	-388.03	307.07	462.2	-310.25	349.48	450.04	-436.91	108.6	414.28	-405.61	114	321.51	-511.05	83.713	354.86	-496.99	53.26	326.69	-501.87	53.784	391.07	-313.69	34.973	452.53	-280.34	40.253	326.77	-216.52	51.253	382.81	-104.88	687.66	122.27	0.38829	655.94	110.61	-57.933	610.54	138.95	-55.096	732.32	94.488	23.932	556.67	121.83	59.784	565.26	265.2	17.913	410.91	104.99	108.12	347.51	119.66	45.462	337.78	106.26	81.733	419.43	113.83	112.24	129.11	134.74	144.58	153.51	228.13	68.133	70.14	190.02	92.767	54.023	221.51	82.755	50.521	158.62	268.91	124.21	97.796	303.09	150.54	214.2	346.78	185.9	153.92	-254.06	1581.7	351.35	-336.49	1269.5	357.62
238	0.9875	-36.392	1275.1	297.19	-138.15	1514	494.61	-188.53	1538.6	169.53	-137.83	1842.1	325.06	-74.126	1011.1	451.86	-81.405	1021.2	184.5	-316.43	1058	360.77	-320.06	1052.2	258.9	-158.85	960.27	530	-182.73	969.24	103.65	-160.96	1107.5	521.99	-199	1103.1	117.14	-331.43	1018.3	308.37	-244.5	666.59	493.46	-195.94	583.82	455.86	-263.79	582.18	471	-172.58	668.79	480.39	-266.81	514.7	460.19	-268.86	524.37	314.97	-364.87	373.7	476.7	-327.34	280.55	429.51	-386.73	307.33	462.14	-308.66	349.28	450.12	-436.61	108.95	414.21	-405.22	114.29	321.47	-510.78	84.28	354.74	-496.8	53.805	326.57	-501.71	54.319	390.94	-313.68	34.97	452.57	-280.21	40.301	326.8	-216.4	51.06	382.88	-99.741	686.05	122.48	5.5198	654.27	110.88	-52.831	608.95	139.27	-49.943	730.63	94.594	29.516	555.33	122.27	64.632	563.75	265.85	26.324	409.48	105.13	117.7	347.8	119.99	55.257	336.89	106.36	89.961	419.21	114.21	126.45	129.27	134.8	157.81	154.21	228.3	83.196	69.348	189.73	108	53.676	221.39	98.43	50.068	158.4	283.43	127.61	98.583	316.44	154.57	215.17	359.74	190.86	155.16	-248.43	1580.5	350.67	-331.1	1268.3	357
239	0.99167	-30.793	1273.7	296.86	-132.56	1512.8	494.03	-182.7	1537.2	168.87	-132.15	1840.8	324.29	-68.96	1009.8	451.72	-75.917	1019.8	184.46	-311.11	1056.8	360.37	-314.57	1050.8	258.52	-153.88	959.34	529.89	-177.1	967.72	103.48	-155.8	1106.3	521.73	-193.23	1101.6	116.87	-326.04	1017.1	308.01	-241.13	666.16	493.36	-192.89	583.1	455.96	-260.78	581.82	470.95	-169.19	667.99	480.45	-264.25	514.29	460.21	-265.88	523.88	314.95	-363.15	373.86	476.65	-326.06	280.43	429.58	-385.37	307.59	462.07	-307.01	349.09	450.19	-436.29	109.34	414.14	-404.81	114.6	321.44	-510.49	84.895	354.62	-496.6	54.399	326.46	-501.54	54.897	390.81	-313.67	34.965	452.61	-280.08	40.354	326.82	-216.28	50.864	382.96	-94.547	684.44	122.65	10.711	652.6	111.13	-47.683	607.36	139.55	-44.723	728.96	94.685	35.125	554	122.69	69.467	562.22	266.49	34.659	408.09	105.27	127.15	348.09	120.34	64.922	336.04	106.47	98.1	418.99	114.59	140.37	129.51	134.93	170.78	154.98	228.53	97.953	68.699	189.54	122.9	53.463	221.37	113.77	49.743	158.28	297.59	130.96	99.423	329.46	158.53	216.17	372.37	195.7	156.43	-242.77	1579.2	349.96	-325.68	1267.1	356.36
